<?xml version="1.0" encoding="UTF-8" standalone="no"?>
<svg
   width="128"
   height="96"
   viewBox="0 0 128 96"
   version="1.1"
   id="svg6"
   sodipodi:docname="mongoose1.svg"
   inkscape:version="1.1.2 (0a00cf5339, 2022-02-04)"
   xmlns:inkscape="http://www.inkscape.org/namespaces/inkscape"
   xmlns:sodipodi="http://sodipodi.sourceforge.net/DTD/sodipodi-0.dtd"
   xmlns="http://www.w3.org/2000/svg"
   xmlns:svg="http://www.w3.org/2000/svg">
  <defs
     id="defs10" />
  <sodipodi:namedview
     id="namedview8"
     pagecolor="#ffffff"
     bordercolor="#666666"
     borderopacity="1.0"
     inkscape:pageshadow="2"
     inkscape:pageopacity="0.0"
     inkscape:pagecheckerboard="0"
     showgrid="false"
     height="96px"
     inkscape:zoom="5.03125"
     inkscape:cx="34.285714"
     inkscape:cy="64"
     inkscape:window-width="1920"
     inkscape:window-height="1011"
     inkscape:window-x="0"
     inkscape:window-y="0"
     inkscape:window-maximized="1"
     inkscape:current-layer="svg6" />
  <path
     style="fill:#850000;fill-opacity:1;fill-rule:nonzero;stroke:none"
     d="m 69.953,27.235897 c -1.676,0.07 -4.508,0.52 -4.508,0.71 0,0.079 1.996,1.079 2.149,1.079 0.14,0 2.457,1.156 2.972,1.476 0.672,0.43 1.153,0.82 1.012,0.82 -0.09,0 -2.469,-0.921 -3.371,-1.308 -0.734,-0.309 -3.785,-1.219 -5.27,-1.57 -0.804,-0.188 -1.144,-0.258 -2.511,-0.508 -2.016,-0.368 -4.387,-0.39 -5.418,-0.051 -1.477,0.48 -1.809,1.07 -1.809,3.246 0,1.2 0.059,1.707 0.32,2.785 0.114,0.469 0.434,1.5 0.583,1.848 0.043,0.11 0.183,0.45 0.3,0.75 0.121,0.297 0.485,1.066 0.805,1.695 1.797,3.567 4.488,6.54 8.281,9.156 1.196,0.82 4.446,2.375 5.75,2.747 0.332,0.09 0.442,0.277 0.172,0.277 -0.3,0 -3.05,-0.758 -3.613,-0.996 a 9.982,9.982 0 0 0 -0.652,-0.262 c -1.957,-0.789 -4.457,-2.414 -6.524,-4.262 a 21.38,21.38 0 0 1 -5.312,-7.257 c -0.793,-1.79 -1.332,-3.875 -1.465,-5.692 -0.078,-1.039 -0.16,-1.289 -0.43,-1.277 -0.09,0 -0.945,-0.031 -1.887,-0.082 -2.562,-0.11 -6.062,0.172 -9.527,0.77 -6.625,1.128 -13.773,3.734 -21.129,7.706 a 94.93,94.93 0 0 0 -3.625,2.067 c -0.14,0.082 -0.582,0.351 -0.984,0.601 -0.399,0.25 -0.871,0.528 -1.043,0.637 -0.38,0.223 -4.586,3.078 -5.09,3.457 -0.188,0.137 -0.711,0.527 -1.152,0.848 -1.997,1.476 -6.344,5.023 -6.594,5.383 -0.121,0.18 0.07,0.27 0.328,0.18 0.133,-0.052 0.473,-0.122 0.746,-0.16 0.281,-0.044 1.004,-0.231 1.605,-0.43 0.61,-0.192 1.266,-0.391 1.454,-0.442 1.488,-0.348 2.09,-0.469 2.96,-0.598 0.395,-0.05 0.977,-0.14 1.305,-0.191 4.078,-0.598 6.024,-0.746 7.84,-0.61 3.945,0.32 7.719,0.993 9.879,1.758 1.617,0.582 4.906,2.36 6.352,3.426 0.836,0.63 3.523,3.305 4.117,4.113 0.46,0.641 0.972,1.2 1.093,1.2 0.04,0 0.09,-2.04 0.102,-4.524 l 0.027,-4.512 5.282,-0.03 c 4.156,-0.02 5.308,0.011 5.379,0.1 0.101,0.13 0.343,0.56 1.136,2.024 0.754,1.41 1.125,2.09 1.356,2.496 0.12,0.223 0.398,0.739 0.633,1.149 0.218,0.41 0.628,1.168 0.91,1.687 0.281,0.52 0.511,0.961 0.511,0.98 0,0.09 0.414,0.63 0.485,0.63 0.039,0 0.14,-0.153 0.21,-0.32 0.079,-0.18 0.29,-0.579 0.462,-0.88 0.18,-0.3 0.5,-0.886 0.722,-1.296 0.223,-0.41 0.524,-0.98 0.684,-1.25 0.441,-0.79 0.902,-1.645 1.285,-2.344 a 84.813,84.813 0 0 1 1.254,-2.298 c 0.129,-0.25 0.29,-0.512 0.34,-0.578 0.082,-0.09 1.265,-0.121 5.543,-0.102 l 5.43,0.031 0.03,8.817 c 0.02,6.945 0.048,8.805 0.15,8.805 0.058,-0.012 0.46,-0.243 0.874,-0.532 0.582,-0.406 0.832,-0.656 1.102,-1.117 0.613,-1.047 2.351,-2.695 3.515,-3.336 a 16.556,16.556 0 0 1 4.516,-1.694 c 1.605,-0.34 2.078,-0.39 5.723,-0.52 6.652,-0.23 7.636,-0.27 7.687,-0.32 0.031,-0.027 -0.058,-0.289 -0.191,-0.59 -0.14,-0.289 -0.38,-0.828 -0.551,-1.187 -0.633,-1.367 -0.633,-1.825 0.031,-2.496 0.45,-0.47 1.613,-0.88 3.613,-1.278 0.329,-0.07 0.743,-0.16 0.91,-0.218 0.173,-0.051 0.383,-0.09 0.473,-0.09 0.254,0 2.25,-0.489 2.672,-0.649 0.29,-0.12 1.856,-0.46 3.723,-0.82 0.812,-0.16 2.922,-0.578 4.668,-0.93 1.105,-0.218 2.258,-0.449 2.558,-0.508 0.301,-0.058 0.735,-0.148 0.954,-0.187 0.222,-0.05 0.511,-0.113 0.652,-0.133 0.14,-0.027 0.844,-0.168 1.558,-0.316 a 33.704,33.704 0 0 1 1.614,-0.313 c 0.504,-0.047 4.289,-0.957 5.16,-1.238 1.387,-0.45 1.797,-0.629 2.672,-1.215 0.941,-0.64 1.203,-0.988 2.136,-2.848 1.036,-2.066 1.184,-2.414 1.477,-3.285 0.45,-1.386 0.422,-1.914 -0.152,-2.496 -0.403,-0.398 -1.266,-0.808 -1.895,-0.898 -0.472,-0.059 -0.535,-0.04 -0.765,0.21 -0.141,0.15 -0.262,0.329 -0.262,0.391 0,0.09 -0.16,0.528 -0.61,1.606 -0.043,0.11 -0.132,0.379 -0.203,0.597 -0.058,0.223 -0.18,0.532 -0.25,0.7 -0.129,0.28 -0.14,0.23 -0.09,-0.547 0.051,-0.77 0.18,-1.418 0.473,-2.399 0.051,-0.187 0.121,-0.507 0.149,-0.707 l 0.05,-0.36 -1.043,-0.417 c -1.085,-0.45 -2.02,-0.84 -2.558,-1.082 -0.184,-0.066 -0.633,-0.246 -1.004,-0.387 -0.383,-0.14 -0.844,-0.32 -1.035,-0.41 a 23.9,23.9 0 0 0 -1.055,-0.437 c -0.672,-0.262 -3.02,-1.059 -5.02,-1.688 a 458.117,458.117 0 0 0 -4.011,-1.21 36.162,36.162 0 0 1 -1.406,-0.388 c -0.16,-0.043 -0.555,-0.152 -0.856,-0.23 -1.766,-0.488 -2.226,-0.61 -2.86,-0.79 a 26.367,26.367 0 0 0 -1.054,-0.28 c -0.191,-0.047 -0.71,-0.168 -1.152,-0.278 -0.774,-0.191 -4.016,-0.937 -5.774,-1.34 l -1.254,-0.289 c -0.222,-0.05 -0.62,-0.129 -0.902,-0.18 -0.273,-0.05 -0.844,-0.16 -1.258,-0.25 -0.41,-0.077 -1.293,-0.25 -1.957,-0.359 -0.66,-0.117 -1.453,-0.257 -1.754,-0.308 -2.773,-0.5 -2.96,-0.528 -7.93,-1.078 -3.062,-0.348 -7.18,-0.641 -8.183,-0.59 -0.16,0 -1.05,0.039 -1.965,0.09 z m -11.605,4.921 c 2.652,0.86 5.23,2.028 6.996,3.168 1.406,0.907 3.152,2.356 3.625,3.004 l 0.199,0.27 -0.379,-0.149 c -0.21,-0.09 -0.652,-0.28 -0.984,-0.441 -1.766,-0.82 -1.957,-0.887 -1.957,-0.707 0,0.047 0.41,0.707 0.902,1.445 0.504,0.75 0.902,1.41 0.902,1.47 0,0.05 -0.187,-0.032 -0.422,-0.192 -0.902,-0.618 -3.02,-1.508 -3.14,-1.328 -0.031,0.05 0.62,0.878 1.457,1.847 0.82,0.969 1.504,1.797 1.504,1.86 0,0.148 -0.16,0.128 -0.922,-0.153 -0.785,-0.277 -0.984,-0.308 -0.984,-0.117 0,0.129 1.695,2.414 2.367,3.203 0.191,0.219 0.343,0.43 0.343,0.48 0,0.239 -2.351,-1.288 -4.015,-2.605 -2.38,-1.898 -4.68,-4.445 -5.89,-6.55 -0.997,-1.72 -1.337,-2.645 -1.337,-3.665 0,-0.597 0.028,-0.718 0.25,-0.93 0.13,-0.136 0.293,-0.25 0.352,-0.25 0.058,0 0.562,0.153 1.133,0.34 z m 31.691,3.555 c 0.961,0.172 2.277,0.399 2.91,0.512 0.633,0.11 1.406,0.238 1.707,0.289 0.301,0.059 0.73,0.137 0.953,0.187 0.22,0.051 0.653,0.141 0.954,0.211 0.992,0.22 1.234,0.27 2.859,0.649 1.746,0.41 2.129,0.488 2.66,0.597 0.453,0.09 0.902,0.262 0.902,0.34 0,0.032 -0.328,0.223 -0.73,0.43 -0.824,0.41 -0.996,0.441 -4.387,0.57 -2.308,0.098 -3.543,0.07 -4.668,-0.11 -2.27,-0.35 -3.441,-0.987 -4.355,-2.366 -0.32,-0.469 -0.531,-0.61 -1.266,-0.797 -0.27,-0.082 -0.683,-0.192 -0.902,-0.262 -0.223,-0.07 -0.602,-0.18 -0.844,-0.25 -0.723,-0.187 -0.312,-0.297 1.145,-0.297 1.003,0 1.707,0.067 3.062,0.297 z m 12.074,13.95 a 0.54,0.54 0 0 1 -0.25,0 c -0.07,-0.032 -0.02,-0.051 0.121,-0.051 0.137,0 0.188,0.02 0.13,0.05 z m -0.433,0.117 c 0,0.05 -0.117,0.12 -0.27,0.152 -0.312,0.078 -1.535,0.43 -1.937,0.558 -0.141,0.051 -0.594,0.192 -1.004,0.31 -1.035,0.3 -3.543,1.116 -4.215,1.378 -1.266,0.48 -4.238,2.055 -4.656,2.477 -0.625,0.609 -0.817,1.265 -0.723,2.523 0.027,0.531 0.098,1.2 0.16,1.488 0.121,0.63 0.05,0.801 -0.191,0.489 -0.242,-0.309 -0.754,-1.426 -0.903,-1.977 -0.082,-0.246 -0.171,-0.578 -0.222,-0.738 -0.18,-0.567 -0.11,-1.239 0.172,-1.645 0.379,-0.582 1.746,-1.508 3.351,-2.277 0.762,-0.371 2.98,-1.13 5.02,-1.727 0.41,-0.12 0.863,-0.261 1.004,-0.3 1.445,-0.489 4.414,-0.958 4.414,-0.711 z m -31.746,0.671 c -0.032,0.028 -0.121,0.04 -0.192,0.008 -0.082,-0.027 -0.05,-0.058 0.059,-0.058 0.113,-0.012 0.172,0.02 0.133,0.05 z m 0,0"
     id="path2" />
  <path
     style="fill:#850000;fill-opacity:1;fill-rule:nonzero;stroke:none"
     d="m 48.883,48.0005 v 6.988 h 5 c 3.754,0 5.027,-0.03 5.117,-0.12 0.152,-0.15 0.184,-13.856 0.031,-13.856 -0.05,0 -0.12,0.078 -0.152,0.168 -0.04,0.09 -1.133,1.797 -2.438,3.793 -2.066,3.156 -2.64,3.925 -2.64,3.535 0,-0.07 -3.422,-5.41 -4.297,-6.7 a 3.725,3.725 0 0 1 -0.309,-0.527 c -0.082,-0.152 -0.18,-0.27 -0.23,-0.27 -0.043,0 -0.082,3.145 -0.082,6.989 z m 0,0"
     id="path4" />
</svg>
