<?xml version="1.0" encoding="UTF-8" standalone="no"?>
<svg
   viewBox="0 0 124.1245 124.12401"
   version="1.1"
   id="svg8"
   sodipodi:docname="postman.svg"
   width="124.1245"
   height="124.12401"
   inkscape:version="1.1.2 (0a00cf5339, 2022-02-04)"
   xmlns:inkscape="http://www.inkscape.org/namespaces/inkscape"
   xmlns:sodipodi="http://sodipodi.sourceforge.net/DTD/sodipodi-0.dtd"
   xmlns="http://www.w3.org/2000/svg"
   xmlns:svg="http://www.w3.org/2000/svg">
  <defs
     id="defs12" />
  <sodipodi:namedview
     id="namedview10"
     pagecolor="#ffffff"
     bordercolor="#666666"
     borderopacity="1.0"
     inkscape:pageshadow="2"
     inkscape:pageopacity="0.0"
     inkscape:pagecheckerboard="0"
     showgrid="false"
     fit-margin-top="0"
     fit-margin-left="0"
     fit-margin-right="0"
     fit-margin-bottom="0"
     inkscape:zoom="5.03125"
     inkscape:cx="61.913043"
     inkscape:cy="62.012422"
     inkscape:window-width="1920"
     inkscape:window-height="1011"
     inkscape:window-x="0"
     inkscape:window-y="0"
     inkscape:window-maximized="1"
     inkscape:current-layer="svg8" />
  <path
     fill="#f37036"
     d="M 111.17985,24.130752 C 90.230848,-2.9972477 51.253848,-8.0052477 24.124848,12.947752 c -27.1250003,20.953 -32.1280003,59.93 -11.175,87.054998 20.957,27.124 59.937,32.124 87.058002,11.167 27.114,-20.952998 32.118,-59.917998 11.172,-87.038998 z m 0,0"
     id="path2" />
  <path
     fill="#ffffff"
     d="m 89.140848,22.228752 a 10.038,10.038 0 0 0 -5.781,2.426 10.028,10.028 0 0 0 -1.54,13.465 10.028,10.028 0 0 0 13.276,2.715 h 0.002 v 10e-4 l 0.156,0.155 a 10.63,10.63 0 0 0 1.965,-1.45 10.341,10.341 0 0 0 -0.156,-14.369 v -0.002 l -8.844,8.789 -0.156,-0.155 8.844,-8.793 a 10.038,10.038 0 0 0 -7.766,-2.78 z m -11.644,14.387 c -4.24,-0.007 -11.163,4.799 -28.067,21.703 l 0.084,0.086 c -0.092,-0.032 -0.185,-0.035 -0.185,-0.035 l -6.364,6.308 a 1.035,1.035 0 0 0 0.93,1.762 l 10.914,-2.328 a 0.307,0.307 0 0 0 0.092,-0.17 l 0.242,0.25 -3.72,3.69 h -0.18 l -22.086,22.26 7.086,6.824 a 1.254,1.254 0 0 0 1.476,0.149 1.327,1.327 0 0 0 0.645,-1.356 l -1.035,-4.5 a 0.534,0.534 0 0 1 0,-0.62 117.285,117.285 0 0 0 26.738,-17.583 l -4.535,-4.537 0.086,-0.014 -2.69,-2.689 0.172,-0.174 0.182,0.186 -0.094,0.091 7.137,7.293 v -0.003 c 13.68,-12.954 23.39,-23.367 20.865,-30.375 a 3.83,3.83 0 0 0 -1.107,-2.208 v 0.004 a 3.778,3.778 0 0 0 -0.483,-0.306 c -0.083,-0.088 -0.156,-0.178 -0.244,-0.264 l -0.066,0.066 a 3.778,3.778 0 0 0 -0.582,-0.29 l 0.289,-0.292 c -1.796,-1.6 -3.28,-2.924 -5.5,-2.93 z m -48.494,53.659 -5.171,5.172 v 0.004 a 1.03,1.03 0 0 0 -0.457,1.125 1.035,1.035 0 0 0 0.921,0.789 l 12.672,0.875 z"
     id="path4" />
  <path
     fill="#f37036"
     d="m 90.012848,21.374752 a 11.047,11.047 0 0 0 -7.759,3.17 10.988,10.988 0 0 0 -2.39,11.641 c -4.741,-2.03 -11.155,1.51 -31.106,21.457 a 0.932,0.932 0 0 0 -0.037,0.094 1.242,1.242 0 0 0 -0.119,0.062 l -6.309,6.364 a 1.97,1.97 0 0 0 -0.363,2.324 2.012,2.012 0 0 0 1.707,0.984 l 0.313,-0.203 8.424,-1.797 -4.03,4.067 a 0.873,0.873 0 0 0 -0.054,0.166 l -19.75,19.799 a 0.798,0.798 0 0 0 -0.192,0.238 l -5.086,5.09 a 1.967,1.967 0 0 0 -0.414,2.043 1.995,1.995 0 0 0 1.656,1.265 l 12.618,0.88 a 1.01,1.01 0 0 0 0.52,-0.415 0.886,0.886 0 0 0 0,-1.035 l -0.026,-0.025 a 2.243,2.243 0 0 0 0.705,-0.58 2.237,2.237 0 0 0 0.406,-1.876 l -0.984,-4.187 a 126.725,126.725 0 0 0 26.334,-16.861 1.091,1.091 0 0 0 0.248,0.103 c 0.254,-0.019 0.492,-0.128 0.672,-0.308 13.55,-12.83 21.515,-21.622 21.515,-28.602 a 8.03,8.03 0 0 0 -0.431,-2.85 10.957,10.957 0 0 0 3.845,0.83 l -0.015,0.004 a 11.219,11.219 0 0 0 5.183,-1.45 0.775,0.775 0 0 0 0.004,0.001 0.835,0.835 0 0 0 0.617,-0.055 9.398,9.398 0 0 0 2.07,-1.652 10.873,10.873 0 0 0 3.258002,-7.758 10.873,10.873 0 0 0 -3.257002,-7.758 0.93,0.93 0 0 0 -0.118,-0.091 11.045,11.045 0 0 0 -7.656,-3.078 z m -0.087,1.772 a 9.27,9.27 0 0 1 5.586,1.914 l -8.068,8.117 a 0.84,0.84 0 0 0 -0.076,0.098 0.83,0.83 0 0 0 -0.239,0.55 0.832,0.832 0 0 0 0.313,0.65 h 0.002 l 6.1,6.1 a 9.044,9.044 0 0 1 -10.028,-1.913 c -2.586,-2.6 -3.336,-6.504 -1.953,-9.891 1.383,-3.39 4.68,-5.605 8.363,-5.625 z m 7.12,3.432 a 8.87,8.87 0 0 1 2.033,5.674 9.15,9.15 0 0 1 -2.688,6.464 9.989,9.989 0 0 1 -1.098,0.895 l -4.923,-4.847 -0.963,-0.963 0.265,-0.265 7.373,-6.96 z m -0.366,4.193 a 0.777,0.777 0 0 0 -0.55,0.031 0.731,0.731 0 0 0 -0.36,0.426 0.73,0.73 0 0 0 0.05,0.559 2.226,2.226 0 0 1 -0.257,2.328 0.64,0.64 0 0 0 -0.195,0.488 c 0.004,0.184 0.07,0.36 0.195,0.492 a 0.58,0.58 0 0 0 0.414,0 0.68,0.68 0 0 0 0.672,-0.207 3.573,3.573 0 0 0 0.465,-3.777 v 0.004 a 0.777,0.777 0 0 0 -0.434,-0.344 z m -19.277,6.723 a 5.584,5.584 0 0 1 3.31,1.226 4.756,4.756 0 0 0 -2.681,1.34 l -22.807,22.705 -4.476,-4.476 c 11.828,-11.772 19.06,-17.921 23.556,-19.936 a 5.584,5.584 0 0 1 3.098,-0.86 z m 3.965,2.96 a 2.895,2.895 0 0 1 2.043,0.844 2.786,2.786 0 0 1 0.879,2.121 2.869,2.869 0 0 1 -0.985,2.07 l -24.25,21.106 -2.617,-2.617 22.887,-22.68 a 2.895,2.895 0 0 1 2.043,-0.843 z m 2.994,6.698 c -1.69,6.702 -10.647,15.783 -19.987,24.607 l -3.777,-3.773 23.765,-20.834 z m -34.932,12.459 0.274,0.27 3.513,3.513 -9.63,2.06 z m 5.793,5.84 0.004,0.004 1.168,1.195 a 1.086,1.086 0 0 0 0.018,0.084 l 0.078,0.012 0.248,0.254 0.82,0.84 -5.385,0.66 3.05,-3.05 z m 3.867,4.076 3.578,3.576 a 126.992,126.992 0 0 1 -25.855,16.656 1.44,1.44 0 0 0 -0.777,1.653 l 1.035,4.5 a 0.31,0.31 0 0 1 0,0.363 0.31,0.31 0 0 1 -0.414,0 l -6.102,-6.152 18.808,-19.084 9.728,-1.512 z m -29.933,21.94 0.869,0.814 4.492,4.492 -10.016,-0.648 4.655,-4.659 z"
     id="path6" />
</svg>
