<?xml version="1.0" encoding="UTF-8" standalone="no"?>
<!-- Generator: Adobe Illustrator 15.1.0, SVG Export Plug-In . SVG Version: 6.00 Build 0)  -->

<svg
   version="1.1"
   id="circle_pieces"
   x="0px"
   y="0px"
   width="506.186"
   height="506.18701"
   viewBox="0 0 506.186 506.18701"
   enable-background="new 0 0 511.875 511.824"
   xml:space="preserve"
   sodipodi:docname="racket.svg"
   inkscape:version="1.1.2 (0a00cf5339, 2022-02-04)"
   xmlns:inkscape="http://www.inkscape.org/namespaces/inkscape"
   xmlns:sodipodi="http://sodipodi.sourceforge.net/DTD/sodipodi-0.dtd"
   xmlns="http://www.w3.org/2000/svg"
   xmlns:svg="http://www.w3.org/2000/svg"><defs
   id="defs9" /><sodipodi:namedview
   id="namedview7"
   pagecolor="#ffffff"
   bordercolor="#666666"
   borderopacity="1.0"
   inkscape:pageshadow="2"
   inkscape:pageopacity="0.0"
   inkscape:pagecheckerboard="0"
   showgrid="false"
   fit-margin-top="0"
   fit-margin-left="0"
   fit-margin-right="0"
   fit-margin-bottom="0"
   inkscape:zoom="1.258245"
   inkscape:cx="253.13035"
   inkscape:cy="252.73297"
   inkscape:window-width="1920"
   inkscape:window-height="1011"
   inkscape:window-x="0"
   inkscape:window-y="0"
   inkscape:window-maximized="1"
   inkscape:current-layer="circle_pieces" />
<circle
   id="circle"
   fill="#ffffff"
   cx="253.09302"
   cy="253.093"
   r="253.093" />
<path
   id="blue-piece"
   fill="#3e5ba9"
   d="m 452.239,409.30401 c 33.792,-43.021 53.946,-97.262 53.946,-156.211 C 506.185,113.31401 392.872,9.8876953e-6 253.092,9.8876953e-6 222.686,9.8876953e-6 193.534,5.3670099 166.526,15.19701 c 102.75,53.899 238.664,229.749 285.713,394.107 z" />
<path
   id="left-red-piece"
   fill="#9f1d20"
   d="M 216.844,161.44401 C 177.363,118.91101 133.149,85.13201 86.321,62.72901 33.414,109.11801 0,177.19901 0,253.09301 c 0,63.814 23.626,122.104 62.597,166.623 34.355,-103.217 98.941,-202.702 154.247,-258.272 z" />
<path
   id="bottom-red-piece"
   fill="#9f1d20"
   d="m 263.479,218.83401 c -54.792,59.051 -109.392,162.422 -129.152,257.794 35.419,18.857 75.84,29.559 118.766,29.559 44.132,0 85.618,-11.306 121.74,-31.163 -20.821,-96.205 -60.124,-184.313 -111.354,-256.19 z" />
</svg>
